<?xml version="1.0" standalone="no"?>
<!DOCTYPE svg PUBLIC "-//W3C//DTD SVG 20010904//EN"
 "http://www.w3.org/TR/2001/REC-SVG-20010904/DTD/svg10.dtd">
<svg version="1.0" xmlns="http://www.w3.org/2000/svg"
 width="1350.000000pt" height="1350.000000pt" viewBox="0 0 1350.000000 1350.000000"
 preserveAspectRatio="xMidYMid meet">
<metadata>
Created by potrace 1.10, written by Peter Selinger 2001-2011
</metadata>
<g transform="translate(0.000000,1350.000000) scale(0.100000,-0.100000)"
fill="#000000" stroke="none">
<path d="M4672 8368 c-9 -9 -12 -211 -12 -846 0 -739 -2 -840 -16 -890 -9 -32
-21 -63 -27 -70 -24 -30 -87 -52 -146 -52 -82 0 -123 21 -155 80 -25 46 -26
54 -26 215 0 95 -4 175 -10 186 -10 18 -25 19 -350 19 -336 0 -339 0 -351 -21
-28 -53 -20 -323 13 -464 21 -91 27 -112 42 -152 84 -226 274 -396 506 -453
97 -24 124 -28 240 -40 106 -10 148 -9 275 4 140 15 171 21 250 48 17 5 44 13
60 18 32 8 120 52 170 85 104 67 194 170 244 280 13 28 28 58 33 68 5 10 13
37 18 60 5 23 13 60 19 82 7 26 11 350 11 941 0 813 -2 902 -16 908 -9 3 -183
6 -388 6 -276 0 -375 -3 -384 -12z"/>
<path d="M5902 8368 c-17 -17 -17 -2419 0 -2436 16 -16 739 -17 769 -2 18 10
19 26 19 495 l0 485 418 2 417 3 3 280 c1 154 0 290 -3 303 l-5 22 -415 0
-415 0 0 115 0 115 523 2 522 3 3 299 c2 212 -1 303 -9 312 -16 19 -1808 21
-1827 2z"/>
<path d="M8020 8361 c-7 -13 -10 -410 -10 -1215 0 -1083 1 -1196 16 -1211 14
-14 58 -15 394 -13 208 2 382 7 387 11 4 5 9 225 10 490 l2 482 407 3 c280 1
411 6 421 13 10 9 13 67 13 274 0 144 -3 277 -6 294 l-6 31 -416 2 -415 3 -1
113 -1 112 512 0 c281 0 518 3 527 6 14 5 16 42 16 305 0 285 -1 299 -19 309
-13 7 -319 10 -920 10 -880 0 -901 0 -911 -19z"/>
<path d="M5153 5558 c-4 -7 -15 -26 -24 -43 -12 -23 -24 -31 -50 -33 -50 -5
-59 -24 -59 -122 0 -123 2 -125 139 -125 143 0 146 3 146 124 0 101 -11 121
-68 121 -61 0 -69 7 -45 40 11 15 17 33 14 39 -10 15 -43 14 -53 -1z m82 -198
l0 -55 -80 0 -80 0 -1 50 c0 28 4 53 8 56 5 3 41 5 81 5 l72 -1 0 -55z"/>
<path d="M4577 5477 c-12 -4 -25 -13 -29 -20 -13 -21 -9 -85 7 -101 14 -14 14
-17 -5 -36 -23 -23 -25 -39 -7 -63 9 -14 32 -18 108 -22 90 -4 98 -2 116 18
27 30 36 80 18 103 -17 22 -20 54 -5 54 16 0 12 29 -7 50 -14 14 -36 19 -96
22 -43 1 -88 -1 -100 -5z m146 -72 c2 -12 -66 -19 -100 -10 -13 3 -21 10 -18
16 8 13 114 7 118 -6z m1 -82 c8 -19 -12 -25 -80 -21 -46 2 -60 7 -62 20 -3
15 6 17 67 16 51 0 71 -4 75 -15z"/>
<path d="M8738 5482 c-104 -3 -100 2 -96 -142 3 -94 3 -95 28 -95 22 0 25 5
28 38 4 49 25 49 82 -4 29 -27 53 -41 72 -41 49 -2 53 16 13 49 l-35 30 25 11
c23 10 25 17 25 71 0 82 -9 88 -142 83z m90 -84 c-3 -21 -8 -23 -65 -23 -59
-1 -63 1 -63 22 0 22 4 23 66 23 62 0 65 -1 62 -22z"/>
<path d="M3964 5467 c-2 -7 -3 -60 -2 -118 l3 -104 28 -3 c26 -3 27 -1 27 37
l0 41 79 0 c93 0 103 8 103 80 0 75 -7 80 -129 80 -76 0 -105 -3 -109 -13z
m183 -62 c8 -22 5 -23 -62 -26 -55 -3 -60 -1 -63 19 -3 21 0 22 58 22 45 0 62
-4 67 -15z"/>
<path d="M4294 5453 c-26 -40 -104 -193 -104 -204 0 -5 14 -9 30 -9 23 0 33 6
40 25 9 23 14 25 75 25 58 0 66 -3 81 -25 11 -17 25 -25 45 -25 16 0 29 4 29
10 0 10 -40 87 -79 150 -11 19 -25 45 -31 58 -14 33 -62 30 -86 -5z m69 -83
c6 -24 0 -30 -30 -30 -26 0 -26 0 -13 34 11 29 35 26 43 -4z"/>
<path d="M4877 5473 c-4 -3 -7 -55 -7 -113 0 -116 7 -134 48 -119 21 8 22 14
22 112 0 67 -4 107 -12 115 -13 13 -41 16 -51 5z"/>
<path d="M5382 5458 c-4 -13 -6 -67 -4 -120 3 -96 4 -98 28 -98 23 0 24 3 24
70 0 39 3 70 6 70 3 0 40 -31 82 -70 48 -43 86 -70 100 -70 22 0 22 2 22 115
0 96 -3 117 -16 122 -26 10 -38 -14 -36 -77 1 -33 -1 -60 -5 -60 -3 0 -27 19
-53 43 -116 104 -135 114 -148 75z"/>
<path d="M5895 5458 c-3 -13 -5 -66 -3 -118 3 -94 3 -95 28 -95 22 0 25 5 28
38 l3 37 78 0 c73 0 80 2 95 25 21 32 20 90 -1 115 -15 18 -30 20 -120 20 -98
0 -103 -1 -108 -22z m179 -47 c4 -5 4 -16 1 -24 -5 -10 -21 -14 -61 -12 -61 3
-69 7 -61 30 5 11 21 15 61 15 30 0 57 -4 60 -9z"/>
<path d="M6217 5462 c-13 -14 -17 -39 -17 -109 0 -118 0 -118 142 -118 136 0
138 2 138 125 0 117 -4 120 -142 120 -89 0 -107 -3 -121 -18z m194 -51 c3 0 5
-25 4 -53 l-2 -53 -66 -5 c-37 -3 -72 -3 -77 -2 -11 4 -14 105 -4 115 5 5 120
4 145 -2z"/>
<path d="M6556 5458 c-8 -30 -7 -166 0 -196 5 -18 13 -22 33 -20 22 3 26 8 29
41 4 46 30 50 70 9 53 -54 68 -63 96 -56 34 8 33 23 -6 56 l-32 27 27 10 c25
10 27 15 27 66 0 80 -8 85 -133 85 -100 0 -105 -1 -111 -22z m178 -47 c15 -24
-6 -38 -54 -37 -54 1 -65 8 -57 31 7 17 101 22 111 6z"/>
<path d="M7046 5458 c-20 -29 -22 -175 -3 -202 11 -15 30 -18 103 -21 49 -1
97 2 106 7 45 22 46 98 2 98 -13 0 -28 -9 -34 -20 -10 -18 -19 -21 -68 -18
l-56 3 -1 50 c-1 28 4 53 9 57 6 4 32 8 58 8 37 0 50 -4 58 -20 6 -11 21 -20
34 -20 33 0 42 37 17 70 -17 23 -25 25 -114 28 -89 3 -96 1 -111 -20z"/>
<path d="M7366 5464 c-9 -25 -7 -197 4 -214 7 -11 34 -14 120 -15 107 0 112 1
130 25 26 34 28 149 3 191 l-17 29 -117 0 c-97 0 -118 -3 -123 -16z m204 -105
l0 -59 -80 0 -80 0 0 53 c0 30 3 56 6 59 3 3 39 6 80 6 l74 0 0 -59z"/>
<path d="M7719 5458 c-4 -79 5 -214 15 -220 19 -13 37 25 36 77 -1 28 -1 55
-1 62 1 7 36 -22 79 -63 60 -58 83 -74 102 -72 24 3 25 5 28 98 3 114 -2 140
-28 140 -27 0 -43 -35 -35 -80 8 -49 -10 -63 -39 -29 -12 14 -41 41 -66 60
-25 18 -46 37 -48 41 -2 5 -12 8 -23 8 -13 0 -19 -7 -20 -22z"/>
<path d="M8077 5462 c-22 -24 -22 -91 0 -107 15 -11 14 -14 -5 -33 -26 -26
-27 -41 -8 -68 13 -17 26 -19 118 -17 85 2 105 5 116 20 16 22 9 187 -8 208
-9 11 -36 15 -105 15 -76 0 -95 -3 -108 -18z m177 -51 c9 -13 -19 -21 -74 -21
-46 0 -67 9 -53 24 10 9 121 7 127 -3z m-5 -84 c17 -21 3 -27 -64 -27 -42 0
-66 5 -74 14 -16 19 -1 24 70 25 36 1 61 -4 68 -12z"/>
<path d="M8347 5473 c-13 -12 -7 -42 11 -51 9 -5 32 -7 50 -5 l32 5 0 -85 c0
-92 12 -118 43 -94 13 9 18 29 19 87 0 42 6 78 12 82 6 4 28 8 49 8 34 0 37 2
37 30 l0 30 -123 0 c-68 0 -127 -3 -130 -7z"/>
<path d="M8959 5458 c-1 -13 0 -61 1 -108 2 -113 7 -117 135 -116 73 1 98 5
106 16 5 8 8 62 7 120 -3 99 -4 105 -25 108 -26 4 -36 -33 -31 -116 l3 -57
-65 0 -65 0 -5 85 c-5 84 -5 85 -32 88 -23 3 -28 -1 -29 -20z"/>
<path d="M9306 5464 c-3 -9 -6 -55 -6 -104 0 -49 3 -95 6 -104 8 -21 50 -21
58 0 8 20 8 172 0 202 -7 26 -48 31 -58 6z"/>
<path d="M9460 5360 l0 -120 25 0 c23 0 25 4 25 40 0 35 3 40 22 40 12 0 40
-18 63 -39 40 -40 51 -44 93 -42 31 1 28 19 -9 52 -30 27 -30 28 -10 38 26 14
36 69 21 115 l-12 36 -109 0 -109 0 0 -120z m178 38 c-3 -18 -10 -22 -54 -24
-57 -3 -80 7 -71 30 5 12 21 16 67 16 57 0 61 -1 58 -22z"/>
</g>
</svg>
