<?xml version="1.0" standalone="no"?>
<!DOCTYPE svg PUBLIC "-//W3C//DTD SVG 20010904//EN"
 "http://www.w3.org/TR/2001/REC-SVG-20010904/DTD/svg10.dtd">
<svg version="1.0" xmlns="http://www.w3.org/2000/svg"
 width="750.000000pt" height="450.000000pt" viewBox="0 0 750.000000 450.000000"
 preserveAspectRatio="xMidYMid meet">
<metadata>
Created by potrace 1.10, written by Peter Selinger 2001-2011
</metadata>
<g transform="translate(0.000000,450.000000) scale(0.100000,-0.100000)"
fill="#ffffff" stroke="none">
<path d="M1457 4223 c-4 -3 -7 -459 -7 -1012 0 -950 -1 -1010 -19 -1085 -22
-93 -42 -124 -102 -153 -84 -42 -200 -20 -252 49 -36 47 -49 126 -56 343 l-6
190 -377 3 c-352 2 -378 1 -386 -15 -20 -37 -23 -217 -8 -391 9 -96 21 -182
26 -192 6 -10 10 -30 10 -44 0 -34 47 -174 79 -236 86 -166 184 -272 334 -357
50 -29 97 -53 104 -53 7 0 21 -4 31 -9 109 -59 420 -86 646 -56 72 9 137 20
145 24 9 5 33 12 55 15 21 4 46 12 55 17 9 5 40 18 70 29 69 27 181 99 244
158 105 99 173 208 225 359 56 163 56 151 62 1313 3 591 1 1083 -3 1093 -7 16
-38 17 -436 17 -235 0 -431 -3 -434 -7z"/>
<path d="M2807 4223 c-10 -9 -8 -2945 1 -2961 7 -10 101 -12 438 -10 l429 3 5
593 5 593 450 0 c248 -1 456 3 463 7 9 7 12 87 10 368 l-3 359 -460 5 -460 5
0 140 0 140 580 5 580 5 0 375 0 375 -1016 3 c-558 1 -1019 -1 -1022 -5z"/>
<path d="M5146 4214 c-8 -20 -8 -2912 0 -2942 l6 -22 434 0 433 0 6 32 c3 18
5 286 3 596 -2 370 0 562 7 562 6 0 208 0 450 0 242 0 446 4 453 8 10 7 13 86
13 358 0 192 0 355 0 362 -1 9 -100 12 -461 12 -300 0 -460 3 -461 10 0 6 -1
70 -1 143 l-1 132 574 3 c315 1 577 6 581 10 9 9 12 727 3 741 -4 8 -318 11
-1020 11 -914 0 -1013 -2 -1019 -16z"/>
<path d="M1985 787 c-6 -7 -21 -29 -34 -49 -16 -27 -30 -38 -47 -38 -13 0 -33
-9 -44 -20 -17 -17 -20 -33 -20 -125 0 -143 3 -145 160 -145 154 0 156 1 153
148 -1 128 -11 142 -99 142 -61 0 -67 10 -29 46 34 31 33 54 -2 54 -16 -1 -33
-6 -38 -13z m97 -159 c2 -7 4 -44 3 -83 l-1 -70 -69 -3 c-113 -5 -114 -4 -108
75 2 38 6 74 8 81 3 8 29 12 84 12 54 0 80 -4 83 -12z"/>
<path d="M676 684 c-9 -24 -7 -247 3 -262 4 -8 19 -12 32 -10 21 3 25 10 29
52 l5 50 82 0 c53 1 87 6 95 14 18 18 17 134 -1 155 -20 24 -236 25 -245 1z
m199 -79 l0 -30 -65 0 c-54 0 -65 3 -68 18 -8 40 5 48 70 45 63 -3 63 -3 63
-33z"/>
<path d="M1063 693 c-16 -6 -144 -263 -137 -274 12 -20 53 -8 76 21 23 30 27
31 94 28 64 -3 70 -5 82 -30 10 -21 20 -28 43 -28 24 0 29 4 29 23 0 13 -4 27
-9 32 -6 6 -33 57 -62 115 -60 122 -70 132 -116 113z m46 -105 c21 -49 19 -52
-22 -53 -44 -2 -54 7 -32 28 8 9 15 22 15 30 0 14 9 27 19 27 4 0 13 -15 20
-32z"/>
<path d="M1325 670 c-22 -43 -19 -93 8 -118 18 -17 37 -22 102 -24 78 -3 80
-4 80 -28 0 -24 -2 -25 -65 -26 -49 0 -72 5 -92 19 -34 25 -58 16 -58 -22 0
-49 29 -61 146 -61 118 0 134 10 141 87 4 39 1 53 -17 73 -19 22 -19 26 -6 36
22 15 20 57 -2 77 -15 14 -40 17 -120 17 l-101 0 -16 -30z m199 -49 c16 -17
16 -19 -6 -25 -38 -10 -136 -7 -143 4 -17 27 5 40 68 40 50 0 68 -4 81 -19z"/>
<path d="M1682 688 c-8 -8 -12 -52 -12 -140 l0 -128 26 -6 c14 -4 30 -2 35 3
5 5 8 68 7 144 -3 126 -4 134 -23 137 -11 1 -26 -3 -33 -10z"/>
<path d="M2240 681 c-11 -21 -14 -211 -4 -249 5 -18 13 -22 33 -20 25 3 26 5
31 86 3 45 9 81 14 80 6 -2 39 -34 75 -73 78 -84 91 -94 113 -95 23 0 30 42
26 169 -3 87 -6 106 -21 115 -32 19 -48 -17 -43 -96 3 -37 1 -68 -4 -68 -5 0
-47 38 -93 85 -46 47 -91 85 -100 85 -9 0 -21 -9 -27 -19z"/>
<path d="M2812 683 c-9 -20 -8 -260 1 -269 3 -4 17 -4 31 0 21 5 25 13 28 53
l3 46 85 3 c74 3 86 6 102 26 23 31 23 85 -2 126 l-20 32 -110 0 c-94 0 -110
-2 -118 -17z m193 -78 l0 -30 -65 0 c-54 0 -65 3 -68 18 -8 40 5 48 70 45 63
-3 63 -3 63 -33z"/>
<path d="M3161 674 c-18 -23 -21 -40 -21 -123 1 -139 3 -141 159 -141 152 0
151 0 151 147 0 141 -2 143 -154 143 -112 0 -115 -1 -135 -26z m214 -119 l0
-80 -85 0 -85 0 -2 74 c-1 41 1 79 3 83 3 5 42 7 87 6 l82 -3 0 -80z"/>
<path d="M3548 689 c-16 -9 -18 -26 -18 -133 0 -130 7 -152 47 -144 14 2 19
15 23 53 7 69 25 69 93 1 47 -47 61 -56 91 -56 47 0 47 18 1 61 -41 39 -43 46
-13 51 42 6 51 136 12 165 -22 16 -210 17 -236 2z m187 -83 l0 -30 -67 -1
c-67 -2 -68 -2 -68 25 0 38 7 41 75 38 59 -3 60 -3 60 -32z"/>
<path d="M4084 679 c-15 -17 -20 -40 -22 -118 -3 -86 -2 -99 18 -124 21 -26
24 -27 124 -27 90 0 103 2 119 21 12 14 17 33 15 57 -3 32 -7 37 -30 40 -23 3
-27 -1 -30 -25 -3 -28 -4 -28 -73 -28 l-70 0 0 80 0 80 67 3 66 3 7 -31 c6
-26 11 -31 33 -28 23 3 27 8 30 40 2 27 -3 43 -17 57 -18 18 -33 21 -119 21
-88 0 -101 -2 -118 -21z"/>
<path d="M4440 680 c-17 -17 -20 -33 -20 -123 0 -148 -1 -147 153 -147 l123 0
17 29 c26 44 24 185 -3 229 l-20 32 -115 0 c-102 0 -117 -2 -135 -20z m215
-125 l0 -80 -85 0 -85 0 4 75 c2 41 5 79 8 83 3 4 39 7 81 5 l77 -3 0 -80z"/>
<path d="M4819 683 c-2 -10 -3 -76 -1 -146 l4 -128 26 3 c27 3 27 4 30 86 2
64 6 82 17 82 8 0 15 -4 15 -9 0 -18 153 -162 169 -159 13 3 16 22 19 123 3
133 -1 165 -23 165 -25 0 -34 -34 -31 -108 2 -40 2 -72 0 -72 -2 0 -42 38 -89
85 -89 88 -129 111 -136 78z"/>
<path d="M5220 680 c-14 -14 -20 -33 -20 -65 0 -66 20 -79 128 -85 85 -5 87
-6 87 -30 0 -24 -2 -25 -73 -26 -59 0 -79 4 -98 19 -32 25 -59 7 -49 -32 12
-48 21 -51 140 -51 l113 0 10 28 c23 56 25 99 6 126 -15 23 -15 30 -3 52 11
22 11 30 -2 52 -14 26 -18 27 -117 30 -91 2 -103 1 -122 -18z m190 -55 c20
-24 1 -35 -64 -35 -67 0 -97 15 -74 38 18 18 123 15 138 -3z"/>
<path d="M5517 693 c-4 -3 -7 -17 -7 -30 0 -21 4 -23 55 -23 l54 0 3 -112 c3
-101 5 -113 22 -116 32 -7 41 16 46 121 l5 102 48 3 c51 3 69 21 47 47 -10 12
-39 15 -140 15 -69 0 -130 -3 -133 -7z"/>
<path d="M5846 692 c-2 -4 -5 -59 -6 -122 -2 -172 -4 -162 28 -158 22 2 28 9
30 33 5 54 12 75 26 75 7 0 39 -25 71 -55 42 -40 64 -55 85 -55 47 0 46 20 -1
64 -41 38 -42 41 -22 44 33 5 53 40 53 92 0 33 -6 53 -20 68 -19 20 -31 22
-130 22 -60 0 -111 -3 -114 -8z m198 -68 c15 -40 -1 -51 -72 -50 -56 1 -67 4
-70 19 -8 39 5 47 72 47 50 0 65 -4 70 -16z"/>
<path d="M6199 679 c-16 -30 -8 -231 10 -252 11 -14 33 -17 121 -17 142 0 141
-1 141 153 0 64 -2 121 -6 127 -10 16 -43 12 -54 -8 -5 -10 -9 -60 -8 -112 l2
-95 -75 0 -74 0 3 98 c3 99 -5 127 -35 127 -7 0 -18 -9 -25 -21z"/>
<path d="M6582 688 c-13 -13 -18 -232 -6 -262 8 -21 50 -21 58 0 3 9 6 68 6
133 0 114 -7 141 -35 141 -6 0 -16 -5 -23 -12z"/>
<path d="M6744 689 c-5 -9 -7 -93 -4 -256 0 -19 6 -23 30 -23 30 0 36 9 32 50
-3 29 8 60 22 60 7 0 39 -25 71 -55 46 -45 63 -55 91 -55 44 0 44 18 -1 59
-37 33 -44 51 -21 51 44 0 65 109 30 158 -14 21 -23 22 -129 22 -72 0 -116 -4
-121 -11z m200 -65 c15 -39 -1 -49 -71 -49 -57 0 -68 3 -71 18 -8 39 5 47 72
47 50 0 65 -4 70 -16z"/>
</g>
</svg>
